<?xml version="1.0" encoding="UTF-8" standalone="no"?>
<svg
   width="256"
   height="256"
   viewBox="0 0 200 200"
   version="1.1"
   id="svg22"
   sodipodi:docname="yufengfirewall.svg"
   inkscape:version="1.4 (86a8ad7, 2024-10-11)"
   xmlns:inkscape="http://www.inkscape.org/namespaces/inkscape"
   xmlns:sodipodi="http://sodipodi.sourceforge.net/DTD/sodipodi-0.dtd"
   xmlns="http://www.w3.org/2000/svg"
   xmlns:svg="http://www.w3.org/2000/svg">
  <sodipodi:namedview
     id="namedview22"
     pagecolor="#ffffff"
     bordercolor="#111111"
     borderopacity="1"
     inkscape:showpageshadow="0"
     inkscape:pageopacity="0"
     inkscape:pagecheckerboard="1"
     inkscape:deskcolor="#d1d1d1"
     inkscape:zoom="3.1523438"
     inkscape:cx="128.15861"
     inkscape:cy="153.37794"
     inkscape:window-width="1920"
     inkscape:window-height="1009"
     inkscape:window-x="3832"
     inkscape:window-y="-8"
     inkscape:window-maximized="1"
     inkscape:current-layer="svg22" />
  <defs
     id="defs8">
    <linearGradient
       id="bgGradient"
       x1="0%"
       y1="0%"
       x2="100%"
       y2="100%">
      <stop
         offset="0%"
         stop-color="#2a2d3e"
         id="stop1" />
      <stop
         offset="100%"
         stop-color="#14151c"
         id="stop2" />
    </linearGradient>
    <linearGradient
       id="fireGradient"
       x1="0%"
       y1="0%"
       x2="100%"
       y2="100%">
      <stop
         offset="0%"
         stop-color="#ff758c"
         id="stop3" />
      <stop
         offset="100%"
         stop-color="#ff7eb3"
         id="stop4" />
      <stop
         offset="0%"
         stop-color="#ff512f"
         id="stop5" />
      <stop
         offset="100%"
         stop-color="#dd2476"
         id="stop6" />
    </linearGradient>
    <linearGradient
       id="shieldFireGrad"
       x1="0%"
       y1="0%"
       x2="0%"
       y2="100%">
      <stop
         offset="0%"
         stop-color="#ff6a00"
         id="stop7" />
      <stop
         offset="100%"
         stop-color="#ee0979"
         id="stop8" />
    </linearGradient>
    <filter
       id="dropShadow"
       x="0"
       y="0"
       width="1"
       height="1">
      <feDropShadow
         dx="0"
         dy="6"
         stdDeviation="6"
         flood-color="#000000"
         flood-opacity="0.4" />
    </filter>
  </defs>
  <path
     d="M100 30 C50 30, 35 45, 35 45 L35 110 C35 150, 100 175, 100 175 C100 175, 165 150, 165 110 L165 45 C165 45, 150 30, 100 30 Z"
     fill="url(#shieldFireGrad)"
     filter="url(#dropShadow)"
     id="path8" />
  <g
     stroke="#ffffff"
     stroke-width="5"
     stroke-opacity="0.75"
     stroke-linecap="round"
     fill="none"
     id="g21">
    <line
       x1="42"
       y1="65"
       x2="158"
       y2="65"
       id="line8" />
    <line
       x1="38"
       y1="90"
       x2="162"
       y2="90"
       id="line9" />
    <line
       x1="38"
       y1="115"
       x2="162"
       y2="115"
       id="line10" />
    <line
       x1="45"
       y1="140"
       x2="155"
       y2="140"
       id="line11" />
    <line
       x1="75"
       y1="38"
       x2="75"
       y2="65"
       id="line12" />
    <line
       x1="125"
       y1="38"
       x2="125"
       y2="65"
       id="line13" />
    <line
       x1="100"
       y1="65"
       x2="100"
       y2="90"
       id="line14" />
    <line
       x1="50"
       y1="65"
       x2="50"
       y2="90"
       id="line15" />
    <line
       x1="150"
       y1="65"
       x2="150"
       y2="90"
       id="line16" />
    <line
       x1="75"
       y1="90"
       x2="75"
       y2="115"
       id="line17" />
    <line
       x1="125"
       y1="90"
       x2="125"
       y2="115"
       id="line18" />
    <line
       x1="100"
       y1="115"
       x2="100"
       y2="140"
       id="line19" />
    <line
       x1="60"
       y1="115"
       x2="60"
       y2="140"
       id="line20" />
    <line
       x1="140"
       y1="115"
       x2="140"
       y2="140"
       id="line21" />
  </g>
</svg>
