<?xml version="1.0" standalone="no"?><!DOCTYPE svg PUBLIC "-//W3C//DTD SVG 1.1//EN" "http://www.w3.org/Graphics/SVG/1.1/DTD/svg11.dtd"><svg t="1784886846707" class="icon" viewBox="0 0 1024 1024" version="1.1" xmlns="http://www.w3.org/2000/svg" p-id="7057" xmlns:xlink="http://www.w3.org/1999/xlink" width="48" height="48"><path d="M839.7 654H163.9V220.4c0-4.4 3.6-8 8-8h659.8c4.4 0 8 3.6 8 8V654z m-661.8-14h647.8V226.4H177.9V640z" fill="#0F13AE" p-id="7058"></path><path d="M805 613H198.6V247.6H805V613z m-592.4-14H791V261.6H212.6V599zM85.1 740.6h833.5v14H85.1z" fill="#0F13AE" p-id="7059"></path><path d="M875.3 795.8H123c-12.5 0-24.1-6.8-30.2-17.8l-16.6-29.8L163.4 644l10.7 9-80.9 96.9 11.9 21.4c3.6 6.5 10.5 10.6 17.9 10.6h752.3c6.4 0 12.6-3.1 16.4-8.2l18.2-24.3-80.4-96.4 10.7-9 87.6 104.8L903 782c-6.5 8.7-16.9 13.8-27.7 13.8z" fill="#0F13AE" p-id="7060"></path><path d="M209.5 692.3h59.9v14h-59.9zM314.4 692.3h59.9v14h-59.9zM419.4 692.3h59.9v14h-59.9zM524.3 692.3h59.9v14h-59.9zM629.2 692.3h59.9v14h-59.9zM734.2 692.3h59.9v14h-59.9z" fill="#0F13AE" p-id="7061"></path><path d="M487.7 443.8h32v14h-32zM245.7 443.8h219.2v14H245.7zM245.7 490.7h130.1v14H245.7zM402.7 490.7h127.5v14H402.7zM369.5 541.9h160.6v14H369.5zM318.1 541.1H355v14h-36.9zM241.7 541.1h36.9v14h-36.9z" fill="#49A3FE" p-id="7062"></path><path d="M367.2 404.4H244.7V298.7h122.4v105.7z m-108.5-14h94.4v-77.7h-94.4v77.7z" fill="#49A3FE" p-id="7063"></path><path d="M526.7 404.4H404.2V298.7h122.4v105.7z m-108.5-14h94.4v-77.7h-94.4v77.7z" fill="#49A3FE" p-id="7064"></path><path d="M741.6 365.3m-168.2 0a168.2 168.2 0 1 0 336.4 0 168.2 168.2 0 1 0-336.4 0Z" fill="#B6F5FF" p-id="7065"></path><path d="M741.6 540.6c-96.6 0-175.2-78.6-175.2-175.2S645 190.2 741.6 190.2s175.2 78.6 175.2 175.2-78.6 175.2-175.2 175.2z m0-336.5c-88.9 0-161.2 72.3-161.2 161.2s72.3 161.2 161.2 161.2c88.9 0 161.2-72.3 161.2-161.2s-72.3-161.2-161.2-161.2z" fill="#0F13AE" p-id="7066"></path><path d="M729.3 427.9l-72-72 9.9-9.9 62.1 62.1 100.5-100.4 9.9 9.9z" fill="#0F13AE" p-id="7067"></path></svg>